<svg width="203" height="269" viewBox="0 0 203 269" fill="none" xmlns="http://www.w3.org/2000/svg">
<path d="M199.657 154.792L3.68965 267.948C1.86285 269.008 0.389648 267.889 0.389648 265.443V119.991C0.389648 117.545 1.86285 114.716 3.68965 113.655L199.657 0.499943C201.484 -0.56089 202.957 0.558877 202.957 3.00469V148.457C202.987 150.902 201.484 153.731 199.657 154.792Z" fill="url(#paint0_linear_3159_18763)"/>
<path d="M202.987 21.4493L0.389648 138.436V120.018C0.389648 117.573 1.86285 114.744 3.68965 113.683L199.657 0.527286C201.484 -0.533547 202.957 0.586222 202.957 3.03203V21.4493H202.987Z" fill="#14B86E"/>
<path d="M172.7 28.2291C172.7 30.2034 171.285 32.6492 169.576 33.6511C167.838 34.653 166.453 33.8574 166.453 31.8536C166.453 29.8793 167.867 27.4335 169.576 26.4316C171.285 25.4297 172.7 26.2253 172.7 28.2291Z" fill="url(#paint1_linear_3159_18763)"/>
<path d="M182.777 22.394C182.777 24.3683 181.363 26.8141 179.654 27.816C177.915 28.8179 176.53 28.0223 176.53 26.0185C176.53 24.0442 177.945 21.5983 179.654 20.5964C181.363 19.624 182.777 20.4196 182.777 22.394Z" fill="url(#paint2_linear_3159_18763)"/>
<path d="M192.854 16.589C192.854 18.5633 191.44 21.0091 189.731 22.011C187.992 23.0129 186.607 22.2173 186.607 20.2135C186.607 18.2391 188.022 15.7933 189.731 14.7914C191.44 13.7895 192.854 14.5852 192.854 16.589Z" fill="url(#paint3_linear_3159_18763)"/>
<path opacity="0.23" d="M145.268 47.6479L33.1561 112.388C31.6534 113.243 30.4453 112.329 30.4453 110.355C30.4453 108.381 31.6534 106.053 33.1561 105.198L145.297 40.4578C146.8 39.6032 148.008 40.5167 148.008 42.491C147.979 44.4948 146.771 46.7933 145.268 47.6479Z" fill="url(#paint4_linear_3159_18763)"/>
<path d="M71.8404 179.221L25.4929 205.977C22.6938 207.598 20.425 205.889 20.425 202.147V150.843C20.425 147.101 22.6938 142.769 25.4929 141.149L71.8404 114.392C74.6395 112.771 76.9083 114.48 76.9083 118.223V169.555C76.9083 173.268 74.6395 177.6 71.8404 179.221Z" fill="#14B86E"/>
<path d="M183.805 52.1271L91.4932 105.434V103.047L183.805 49.7402V52.1271Z" fill="#14B86E"/>
<path d="M183.805 59.818L91.4932 113.125V110.738L183.805 57.4312V59.818Z" fill="#14B86E"/>
<path d="M183.805 67.4795L91.4932 120.786V118.429L183.805 65.1221V67.4795Z" fill="#14B86E"/>
<path d="M183.805 75.1706L91.4932 128.477V126.091L183.805 72.7837V75.1706Z" fill="#14B86E"/>
<path d="M183.805 82.8615L91.4932 136.168V133.781L183.805 80.4746V82.8615Z" fill="#14B86E"/>
<path d="M128.235 122.613L91.4932 143.83V141.472L128.235 120.256V122.613Z" fill="#14B86E"/>
<path d="M183.805 107.88L91.4932 161.187V158.829L183.805 105.522V107.88Z" fill="#14B86E"/>
<path d="M183.805 115.571L91.4932 168.878V166.491L183.805 113.185V115.571Z" fill="#14B86E"/>
<path d="M183.805 123.262L91.4932 176.569V174.182L183.805 120.875V123.262Z" fill="#14B86E"/>
<path d="M183.805 130.923L91.4932 184.23V181.872L183.805 128.565V130.923Z" fill="#14B86E"/>
<path d="M183.805 138.614L91.4932 191.921V189.534L183.805 136.228V138.614Z" fill="#14B86E"/>
<path d="M128.235 178.395L91.4932 199.612V197.225L128.235 176.008V178.395Z" fill="#14B86E"/>
<path d="M71.8404 210.957L25.4929 237.714C22.6938 239.334 20.425 237.625 20.425 233.883V226.074C20.425 222.332 22.6938 218 25.4929 216.379L71.8404 189.593C74.6395 187.973 76.9083 189.682 76.9083 193.424V201.233C76.9083 205.005 74.6395 209.336 71.8404 210.957Z" fill="#14B86E"/>
<defs>
<linearGradient id="paint0_linear_3159_18763" x1="50.3066" y1="43.4653" x2="262.47" y2="185.169" gradientUnits="userSpaceOnUse">
<stop stop-color="#F4F3F1"/>
<stop offset="1" stop-color="#EAE7DC"/>
</linearGradient>
<linearGradient id="paint1_linear_3159_18763" x1="167.348" y1="28.7324" x2="173.691" y2="31.7445" gradientUnits="userSpaceOnUse">
<stop stop-color="#E9F2FF"/>
<stop offset="1" stop-color="#BDD6FF"/>
</linearGradient>
<linearGradient id="paint2_linear_3159_18763" x1="177.423" y1="22.9145" x2="183.766" y2="25.9269" gradientUnits="userSpaceOnUse">
<stop stop-color="#E9F2FF"/>
<stop offset="1" stop-color="#BDD6FF"/>
</linearGradient>
<linearGradient id="paint3_linear_3159_18763" x1="187.498" y1="17.0971" x2="193.841" y2="20.1093" gradientUnits="userSpaceOnUse">
<stop stop-color="#E9F2FF"/>
<stop offset="1" stop-color="#BDD6FF"/>
</linearGradient>
<linearGradient id="paint4_linear_3159_18763" x1="72.1315" y1="46.2409" x2="142.693" y2="93.3686" gradientUnits="userSpaceOnUse">
<stop stop-color="#EAE7DC"/>
<stop offset="1" stop-color="#EAE7DC"/>
</linearGradient>
</defs>
</svg>
